<?xml version="1.0" encoding="UTF-8"?>
<svg xmlns="http://www.w3.org/2000/svg" xmlns:xlink="http://www.w3.org/1999/xlink" width="702pt" height="148pt" viewBox="0 0 702 148" version="1.1">
<g id="surface1">
<path style=" stroke:none;fill-rule:evenodd;fill:rgb(13.699341%,12.199402%,12.5%);fill-opacity:1;" d="M 18.589844 98.082031 L 393.296875 98.082031 L 421.039063 83.699219 L 419.351563 98.082031 L 515.238281 98.082031 L 697.046875 11.609375 L 701.480469 2.742188 L 699.265625 0.523438 L 588.40625 0.523438 L 569.695313 8.0625 L 570.667969 0.523438 L 495.285156 0.523438 L 477.546875 7.175781 L 473.113281 0.523438 L 73.472656 0.523438 L 6.257813 60.921875 C -4.292969 70.402344 -0.078125 90.46875 18.589844 98.082031 "/>
<path style=" stroke:none;fill-rule:evenodd;fill:rgb(13.699341%,12.199402%,12.5%);fill-opacity:1;" d="M 124.25 114.53125 L 587.195313 114.53125 C 592.632813 114.53125 597.082031 118.976563 597.082031 124.414063 L 597.082031 137.59375 C 597.082031 143.03125 592.632813 147.480469 587.195313 147.480469 L 124.25 147.480469 C 118.8125 147.480469 114.363281 143.03125 114.363281 137.59375 L 114.363281 124.414063 C 114.363281 118.976563 118.8125 114.53125 124.25 114.53125 "/>
<path style="fill:none;stroke-width:2.16;stroke-linecap:butt;stroke-linejoin:miter;stroke:rgb(13.699341%,12.199402%,12.5%);stroke-opacity:1;stroke-miterlimit:22.9256;" d="M 1242.5 334.6875 L 5871.953125 334.6875 C 5926.328125 334.6875 5970.820313 290.234375 5970.820313 235.859375 L 5970.820313 104.0625 C 5970.820313 49.6875 5926.328125 5.195313 5871.953125 5.195313 L 1242.5 5.195313 C 1188.125 5.195313 1143.632813 49.6875 1143.632813 104.0625 L 1143.632813 235.859375 C 1143.632813 290.234375 1188.125 334.6875 1242.5 334.6875 Z M 1242.5 334.6875 " transform="matrix(0.1,0,0,-0.1,0,148)"/>
<path style=" stroke:none;fill-rule:evenodd;fill:rgb(100%,100%,100%);fill-opacity:1;" d="M 415.464844 51.519531 L 493.066406 18.261719 L 544.0625 18.261719 L 517.457031 53.738281 L 586.1875 18.261719 L 643.835938 18.261719 L 515.082031 81.546875 L 443.367188 80.5 L 466.460938 51.519531 L 388.859375 80.34375 L 315.898438 80.5 L 373.339844 18.261719 L 446.507813 18.261719 L 415.464844 51.519531 "/>
<path style=" stroke:none;fill-rule:evenodd;fill:rgb(100%,100%,100%);fill-opacity:1;" d="M 314.613281 29.347656 L 133.335938 29.347656 L 99.707031 67.039063 L 176.011719 67.039063 L 191.53125 55.953125 L 150.703125 55.953125 L 162.707031 42.652344 L 300.171875 42.652344 C 288.25 66.253906 252.164063 82.980469 245.359375 80.5 L 17.585938 81.542969 C 16.863281 75.910156 17.640625 72.667969 21.863281 68.960938 L 82.359375 15.839844 L 320.128906 18.261719 L 314.613281 29.347656 "/>
<path style=" stroke:none;fill-rule:nonzero;fill:rgb(100%,100%,100%);fill-opacity:1;" d="M 135.574219 126.394531 L 143.160156 126.394531 L 143.160156 126.882813 C 143.253906 126.816406 143.359375 126.75 143.488281 126.691406 C 143.609375 126.632813 143.746094 126.578125 143.878906 126.539063 C 144.039063 126.492188 144.203125 126.460938 144.359375 126.433594 C 144.519531 126.410156 144.695313 126.394531 144.875 126.394531 L 152.9375 126.394531 C 153.324219 126.394531 153.664063 126.421875 153.953125 126.472656 C 154.238281 126.523438 154.472656 126.589844 154.65625 126.664063 C 154.8125 126.722656 154.949219 126.789063 155.046875 126.851563 C 155.152344 126.914063 155.234375 126.972656 155.289063 127.023438 C 155.347656 127.078125 155.382813 127.113281 155.394531 127.132813 C 155.40625 127.15625 155.398438 127.152344 155.375 127.128906 C 155.421875 127.042969 155.488281 126.957031 155.5625 126.871094 C 155.644531 126.785156 155.738281 126.714844 155.855469 126.652344 C 155.972656 126.566406 156.121094 126.5 156.300781 126.453125 C 156.480469 126.40625 156.703125 126.382813 156.949219 126.382813 L 163.574219 126.382813 C 164.054688 126.382813 164.488281 126.402344 164.863281 126.441406 C 165.242188 126.480469 165.578125 126.535156 165.875 126.601563 C 166.175781 126.667969 166.4375 126.75 166.664063 126.84375 C 166.894531 126.9375 167.085938 127.042969 167.246094 127.152344 C 167.386719 127.25 167.496094 127.347656 167.589844 127.457031 C 167.683594 127.5625 167.761719 127.671875 167.832031 127.785156 C 167.902344 127.929688 167.949219 128.074219 167.984375 128.214844 C 168.019531 128.355469 168.035156 128.488281 168.035156 128.617188 L 168.035156 133.152344 L 160.453125 133.152344 L 160.453125 128.09375 C 160.453125 128.03125 160.421875 127.980469 160.363281 127.9375 C 160.3125 127.894531 160.246094 127.855469 160.179688 127.820313 C 160.089844 127.796875 159.988281 127.773438 159.886719 127.757813 C 159.785156 127.738281 159.671875 127.730469 159.5625 127.730469 L 156.40625 127.730469 C 156.289063 127.730469 156.1875 127.742188 156.097656 127.765625 C 156.003906 127.785156 155.925781 127.808594 155.855469 127.835938 C 155.785156 127.867188 155.734375 127.910156 155.6875 127.949219 C 155.640625 127.992188 155.617188 128.03125 155.617188 128.066406 L 155.617188 133.152344 L 147.996094 133.152344 L 147.996094 128.117188 C 147.996094 128.074219 147.980469 128.027344 147.945313 127.976563 C 147.914063 127.921875 147.863281 127.882813 147.792969 127.847656 C 147.699219 127.804688 147.59375 127.769531 147.464844 127.742188 C 147.339844 127.71875 147.1875 127.707031 147 127.707031 L 143.984375 127.707031 C 143.867188 127.707031 143.761719 127.722656 143.65625 127.75 C 143.550781 127.78125 143.46875 127.820313 143.398438 127.859375 C 143.328125 127.902344 143.277344 127.949219 143.230469 127.996094 C 143.183594 128.042969 143.160156 128.089844 143.160156 128.128906 L 143.160156 133.167969 L 135.574219 133.167969 Z M 192.949219 128.722656 L 192.949219 133.140625 L 185.605469 133.140625 L 185.089844 132.421875 C 185.066406 132.472656 185.023438 132.519531 184.964844 132.558594 C 184.914063 132.59375 184.859375 132.632813 184.8125 132.664063 C 184.742188 132.71875 184.667969 132.761719 184.574219 132.800781 C 184.480469 132.839844 184.394531 132.875 184.300781 132.910156 C 184.046875 132.988281 183.78125 133.046875 183.507813 133.089844 C 183.214844 133.121094 182.90625 133.140625 182.582031 133.140625 L 174.933594 133.140625 C 174.519531 133.140625 174.148438 133.128906 173.816406 133.101563 C 173.488281 133.078125 173.183594 133.039063 172.910156 132.988281 C 172.609375 132.9375 172.351563 132.867188 172.136719 132.789063 C 171.917969 132.707031 171.730469 132.613281 171.566406 132.511719 C 171.386719 132.398438 171.246094 132.273438 171.140625 132.132813 C 171.039063 131.992188 170.964844 131.851563 170.917969 131.714844 C 170.871094 131.570313 170.839844 131.421875 170.828125 131.277344 C 170.816406 131.132813 170.816406 130.996094 170.816406 130.867188 C 170.816406 130.746094 170.816406 130.617188 170.816406 130.480469 C 170.816406 130.34375 170.835938 130.207031 170.882813 130.070313 C 170.929688 129.933594 170.992188 129.796875 171.070313 129.664063 C 171.152344 129.535156 171.261719 129.410156 171.398438 129.296875 C 171.554688 129.179688 171.761719 129.070313 172 128.972656 C 172.242188 128.875 172.527344 128.792969 172.875 128.734375 C 173.148438 128.683594 173.460938 128.644531 173.800781 128.617188 C 174.144531 128.59375 174.519531 128.578125 174.933594 128.578125 L 183.445313 128.578125 C 183.601563 128.578125 183.761719 128.5625 183.925781 128.527344 C 184.082031 128.492188 184.234375 128.449219 184.367188 128.386719 C 184.464844 128.351563 184.53125 128.308594 184.59375 128.257813 C 184.648438 128.207031 184.679688 128.160156 184.679688 128.117188 C 184.679688 128.066406 184.644531 128.015625 184.574219 127.964844 C 184.503906 127.914063 184.414063 127.867188 184.300781 127.835938 C 184.1875 127.792969 184.058594 127.757813 183.925781 127.730469 C 183.78125 127.707031 183.648438 127.695313 183.507813 127.695313 L 172.1875 127.695313 L 172.1875 126.367188 L 187.972656 126.367188 C 188.425781 126.367188 188.855469 126.382813 189.242188 126.414063 C 189.628906 126.445313 189.984375 126.488281 190.308594 126.546875 C 190.671875 126.609375 190.988281 126.6875 191.25 126.78125 C 191.511719 126.875 191.734375 126.980469 191.917969 127.089844 C 192.097656 127.191406 192.257813 127.300781 192.378906 127.417969 C 192.507813 127.535156 192.601563 127.648438 192.671875 127.769531 C 192.785156 127.933594 192.859375 128.09375 192.894531 128.257813 C 192.929688 128.421875 192.949219 128.574219 192.949219 128.722656 Z M 184.644531 129.890625 L 180.59375 129.890625 C 180.410156 129.890625 180.234375 129.910156 180.066406 129.941406 C 179.890625 129.976563 179.738281 130.019531 179.601563 130.070313 C 179.484375 130.121094 179.378906 130.179688 179.292969 130.242188 C 179.199219 130.308594 179.152344 130.371094 179.152344 130.429688 L 179.152344 131.394531 C 179.152344 131.4375 179.179688 131.480469 179.238281 131.527344 C 179.296875 131.574219 179.355469 131.621094 179.425781 131.664063 C 179.542969 131.707031 179.679688 131.746094 179.84375 131.777344 C 180 131.8125 180.148438 131.832031 180.289063 131.832031 L 183.578125 131.832031 C 183.695313 131.832031 183.820313 131.816406 183.960938 131.785156 C 184.09375 131.753906 184.222656 131.71875 184.335938 131.675781 C 184.425781 131.644531 184.496094 131.601563 184.554688 131.554688 C 184.613281 131.507813 184.644531 131.464844 184.644531 131.417969 Z M 208.214844 127.71875 L 204.507813 127.71875 C 204.394531 127.71875 204.273438 127.734375 204.148438 127.765625 C 204.023438 127.792969 203.917969 127.828125 203.824219 127.875 C 203.730469 127.914063 203.660156 127.964844 203.601563 128.015625 C 203.542969 128.066406 203.511719 128.117188 203.511719 128.167969 L 203.511719 131.433594 C 203.511719 131.476563 203.542969 131.523438 203.601563 131.574219 C 203.660156 131.625 203.742188 131.667969 203.859375 131.703125 C 203.953125 131.746094 204.058594 131.777344 204.1875 131.804688 C 204.308594 131.832031 204.441406 131.84375 204.578125 131.84375 L 208.214844 131.84375 C 208.332031 131.84375 208.441406 131.828125 208.5625 131.796875 C 208.671875 131.769531 208.777344 131.738281 208.863281 131.703125 C 208.960938 131.660156 209.035156 131.613281 209.089844 131.5625 C 209.144531 131.507813 209.175781 131.464844 209.175781 131.417969 L 209.175781 128.144531 C 209.175781 128.097656 209.144531 128.054688 209.089844 128.003906 C 209.035156 127.949219 208.960938 127.902344 208.863281 127.859375 C 208.777344 127.820313 208.671875 127.785156 208.5625 127.757813 C 208.441406 127.730469 208.332031 127.71875 208.214844 127.71875 Z M 217.515625 123.953125 L 217.515625 133.167969 L 199.945313 133.167969 C 199.464844 133.167969 199.089844 133.160156 198.835938 133.148438 C 198.570313 133.132813 198.363281 133.117188 198.230469 133.097656 C 198.09375 133.074219 198.003906 133.054688 197.953125 133.039063 C 197.90625 133.023438 197.863281 133.007813 197.820313 133 C 197.523438 132.949219 197.246094 132.882813 196.996094 132.808594 C 196.742188 132.730469 196.527344 132.648438 196.34375 132.5625 C 196.15625 132.476563 196 132.382813 195.863281 132.28125 C 195.722656 132.179688 195.613281 132.074219 195.519531 131.972656 C 195.425781 131.859375 195.359375 131.75 195.3125 131.644531 C 195.265625 131.539063 195.242188 131.433594 195.242188 131.328125 L 195.242188 128.324219 C 195.242188 128.167969 195.273438 128.023438 195.332031 127.886719 C 195.390625 127.75 195.472656 127.621094 195.589844 127.5 C 195.699219 127.378906 195.839844 127.273438 196 127.179688 C 196.15625 127.085938 196.332031 126.996094 196.515625 126.910156 C 196.742188 126.824219 196.988281 126.75 197.253906 126.683594 C 197.515625 126.621094 197.796875 126.566406 198.09375 126.523438 C 198.480469 126.464844 198.796875 126.421875 199.039063 126.402344 C 199.277344 126.378906 199.460938 126.367188 199.582031 126.367188 C 199.710938 126.367188 199.800781 126.375 199.839844 126.382813 C 199.886719 126.390625 199.921875 126.394531 199.945313 126.394531 C 201.480469 126.394531 203.007813 126.394531 204.542969 126.394531 C 206.078125 126.394531 207.609375 126.394531 209.140625 126.394531 L 209.140625 123.953125 Z M 237.796875 126.382813 C 238.179688 126.382813 238.566406 126.394531 238.960938 126.421875 C 239.347656 126.449219 239.726563 126.492188 240.089844 126.5625 C 240.363281 126.613281 240.617188 126.683594 240.84375 126.769531 C 241.074219 126.855469 241.277344 126.953125 241.464844 127.0625 C 241.578125 127.148438 241.683594 127.238281 241.769531 127.335938 C 241.863281 127.429688 241.933594 127.53125 241.980469 127.640625 C 242.023438 127.789063 242.046875 127.941406 242.046875 128.101563 L 242.046875 130.507813 L 228.078125 130.507813 L 228.078125 131.238281 C 228.078125 131.308594 228.125 131.378906 228.21875 131.453125 C 228.3125 131.523438 228.4375 131.585938 228.59375 131.640625 C 228.757813 131.699219 228.929688 131.746094 229.109375 131.777344 C 229.296875 131.8125 229.480469 131.832031 229.660156 131.832031 L 241.226563 131.832031 L 241.226563 133.152344 L 223.960938 133.152344 C 223.597656 133.152344 223.234375 133.144531 222.886719 133.121094 C 222.527344 133.101563 222.203125 133.058594 221.90625 133 C 221.632813 132.957031 221.378906 132.898438 221.152344 132.820313 C 220.921875 132.742188 220.71875 132.648438 220.53125 132.539063 C 220.394531 132.460938 220.277344 132.367188 220.191406 132.261719 C 220.097656 132.152344 220.019531 132.035156 219.949219 131.90625 C 219.902344 131.824219 219.867188 131.730469 219.84375 131.632813 C 219.820313 131.535156 219.808594 131.429688 219.808594 131.316406 L 219.808594 128.273438 C 219.808594 128.167969 219.820313 128.070313 219.84375 127.976563 C 219.867188 127.882813 219.890625 127.792969 219.914063 127.707031 C 219.984375 127.558594 220.074219 127.425781 220.191406 127.300781 C 220.300781 127.179688 220.441406 127.070313 220.601563 126.972656 C 220.78125 126.863281 221 126.769531 221.238281 126.691406 C 221.480469 126.613281 221.742188 126.554688 222.042969 126.511719 C 222.316406 126.46875 222.617188 126.4375 222.9375 126.414063 C 223.253906 126.394531 223.574219 126.382813 223.898438 126.382813 Z M 233.980469 129.195313 L 233.980469 128.128906 C 233.980469 128.089844 233.953125 128.042969 233.898438 127.996094 C 233.839844 127.949219 233.765625 127.902344 233.675781 127.859375 C 233.585938 127.820313 233.476563 127.785156 233.367188 127.757813 C 233.25 127.730469 233.140625 127.71875 233.023438 127.71875 L 229.046875 127.71875 C 228.929688 127.71875 228.816406 127.730469 228.71875 127.757813 C 228.613281 127.785156 228.519531 127.8125 228.425781 127.847656 C 228.328125 127.890625 228.261719 127.933594 228.203125 127.984375 C 228.144531 128.027344 228.113281 128.074219 228.113281 128.117188 L 228.113281 129.195313 L 233.980469 129.195313 "/>
<path style=" stroke:none;fill-rule:nonzero;fill:rgb(100%,100%,100%);fill-opacity:1;" d="M 277.5625 126.003906 L 277.5625 127.300781 L 271.644531 127.300781 C 271.503906 127.300781 271.382813 127.304688 271.269531 127.3125 C 271.160156 127.324219 271.066406 127.335938 271.003906 127.351563 C 270.863281 127.390625 270.777344 127.425781 270.746094 127.46875 C 270.714844 127.511719 270.695313 127.554688 270.695313 127.597656 L 270.695313 128.40625 L 277.226563 128.40625 L 277.226563 129.71875 L 270.695313 129.71875 L 270.695313 135.1875 L 262.40625 135.1875 L 262.40625 129.71875 L 259.019531 129.71875 L 259.019531 128.421875 L 262.40625 128.421875 L 262.40625 127.714844 C 262.40625 127.628906 262.414063 127.542969 262.4375 127.457031 C 262.460938 127.371094 262.507813 127.285156 262.578125 127.199219 C 262.640625 127.085938 262.734375 126.976563 262.84375 126.871094 C 262.960938 126.761719 263.101563 126.660156 263.289063 126.566406 C 263.441406 126.492188 263.628906 126.414063 263.84375 126.34375 C 264.054688 126.269531 264.289063 126.207031 264.535156 126.15625 C 264.808594 126.105469 265.09375 126.066406 265.402344 126.039063 C 265.707031 126.015625 266.046875 126.003906 266.429688 126.003906 Z M 297.65625 128.449219 C 297.976563 128.449219 298.285156 128.457031 298.585938 128.472656 C 298.894531 128.488281 299.183594 128.515625 299.453125 128.550781 C 299.722656 128.582031 299.96875 128.628906 300.179688 128.683594 C 300.394531 128.742188 300.601563 128.8125 300.804688 128.898438 C 300.984375 128.984375 301.148438 129.085938 301.296875 129.199219 C 301.445313 129.316406 301.5625 129.449219 301.652344 129.605469 C 301.691406 129.699219 301.726563 129.800781 301.75 129.90625 C 301.773438 130.015625 301.785156 130.132813 301.785156 130.261719 L 301.785156 133.464844 C 301.785156 133.601563 301.769531 133.726563 301.734375 133.84375 C 301.699219 133.960938 301.652344 134.070313 301.585938 134.171875 C 301.492188 134.292969 301.382813 134.40625 301.242188 134.507813 C 301.109375 134.609375 300.953125 134.699219 300.769531 134.765625 C 300.613281 134.84375 300.429688 134.90625 300.214844 134.964844 C 300 135.019531 299.777344 135.066406 299.550781 135.097656 C 299.261719 135.144531 298.949219 135.171875 298.621094 135.1875 C 298.296875 135.207031 297.976563 135.214844 297.65625 135.214844 L 283.753906 135.214844 C 283.394531 135.214844 283.035156 135.203125 282.683594 135.175781 C 282.339844 135.152344 282.003906 135.109375 281.691406 135.046875 C 281.441406 134.996094 281.203125 134.9375 280.980469 134.867188 C 280.753906 134.800781 280.546875 134.722656 280.367188 134.636719 C 280.214844 134.550781 280.066406 134.457031 279.945313 134.351563 C 279.820313 134.25 279.726563 134.136719 279.65625 134.003906 C 279.613281 133.9375 279.578125 133.863281 279.558594 133.78125 C 279.539063 133.699219 279.523438 133.613281 279.523438 133.519531 L 279.523438 130.246094 C 279.523438 130.128906 279.539063 130.015625 279.558594 129.914063 C 279.578125 129.8125 279.613281 129.710938 279.65625 129.617188 C 279.75 129.472656 279.859375 129.339844 280 129.21875 C 280.132813 129.097656 280.289063 129 280.472656 128.921875 C 280.675781 128.828125 280.894531 128.753906 281.132813 128.691406 C 281.367188 128.632813 281.609375 128.582031 281.859375 128.550781 C 282.128906 128.515625 282.40625 128.488281 282.683594 128.472656 C 282.96875 128.457031 283.242188 128.449219 283.515625 128.449219 Z M 292.71875 129.785156 L 288.25 129.785156 C 288.1875 129.785156 288.113281 129.796875 288.03125 129.824219 C 287.957031 129.851563 287.894531 129.878906 287.847656 129.914063 C 287.800781 129.949219 287.765625 129.984375 287.742188 130.023438 C 287.726563 130.0625 287.714844 130.097656 287.714844 130.132813 L 287.714844 133.464844 C 287.714844 133.519531 287.742188 133.566406 287.8125 133.613281 C 287.878906 133.660156 287.960938 133.703125 288.046875 133.734375 C 288.140625 133.78125 288.242188 133.8125 288.371094 133.839844 C 288.492188 133.863281 288.613281 133.878906 288.726563 133.878906 L 292.617188 133.878906 C 292.730469 133.878906 292.847656 133.863281 292.972656 133.839844 C 293.09375 133.8125 293.203125 133.785156 293.292969 133.75 C 293.40625 133.714844 293.492188 133.671875 293.546875 133.625 C 293.605469 133.578125 293.632813 133.535156 293.632813 133.492188 L 293.632813 130.144531 C 293.632813 130.101563 293.605469 130.058594 293.546875 130.015625 C 293.492188 129.972656 293.417969 129.9375 293.324219 129.902344 C 293.238281 129.867188 293.136719 129.839844 293.027344 129.816406 C 292.910156 129.796875 292.808594 129.785156 292.71875 129.785156 Z M 313.050781 135.214844 L 304.796875 135.214844 L 304.796875 128.433594 L 313.050781 128.433594 L 313.050781 129.039063 C 313.160156 128.96875 313.3125 128.90625 313.488281 128.847656 C 313.558594 128.8125 313.640625 128.777344 313.746094 128.75 C 313.847656 128.71875 313.941406 128.695313 314.03125 128.675781 C 314.164063 128.644531 314.304688 128.613281 314.4375 128.582031 C 314.574219 128.550781 314.710938 128.527344 314.847656 128.511719 C 315.003906 128.492188 315.152344 128.480469 315.304688 128.46875 C 315.449219 128.453125 315.585938 128.449219 315.726563 128.449219 L 320.628906 128.449219 L 320.628906 130.324219 L 316.296875 130.324219 C 315.871094 130.324219 315.476563 130.34375 315.113281 130.378906 C 314.730469 130.410156 314.402344 130.457031 314.132813 130.519531 C 313.976563 130.542969 313.84375 130.578125 313.726563 130.613281 C 313.617188 130.65625 313.511719 130.699219 313.421875 130.75 C 313.289063 130.800781 313.191406 130.859375 313.136719 130.925781 C 313.078125 130.988281 313.050781 131.058594 313.050781 131.136719 L 313.050781 135.214844 "/>
<path style=" stroke:none;fill-rule:nonzero;fill:rgb(100%,100%,100%);fill-opacity:1;" d="M 333.695313 118.339844 L 342.535156 118.339844 L 345.71875 128.636719 L 350.363281 118.339844 L 359.183594 118.339844 L 363.847656 128.636719 L 367.03125 118.339844 L 375.828125 118.339844 L 369.191406 136.773438 L 360.066406 136.773438 L 354.78125 125.167969 L 349.523438 136.773438 L 340.394531 136.773438 Z M 379.261719 118.339844 L 388.589844 118.339844 L 388.589844 136.773438 L 379.261719 136.773438 Z M 395.332031 118.339844 L 404.03125 118.339844 L 415.375 128.535156 L 415.375 118.339844 L 424.148438 118.339844 L 424.148438 136.773438 L 415.375 136.773438 L 404.085938 126.652344 L 404.085938 136.773438 L 395.332031 136.773438 Z M 430.394531 118.339844 L 439.09375 118.339844 L 450.4375 128.535156 L 450.4375 118.339844 L 459.210938 118.339844 L 459.210938 136.773438 L 450.4375 136.773438 L 439.148438 126.652344 L 439.148438 136.773438 L 430.394531 136.773438 Z M 465.378906 118.339844 L 490.324219 118.339844 L 490.324219 122.277344 L 474.710938 122.277344 L 474.710938 125.207031 L 489.195313 125.207031 L 489.195313 128.964844 L 474.710938 128.964844 L 474.710938 132.597656 L 490.78125 132.597656 L 490.78125 136.773438 L 465.378906 136.773438 Z M 495.914063 136.773438 L 495.914063 118.339844 L 511.433594 118.339844 C 514.308594 118.339844 516.511719 118.492188 518.027344 118.796875 C 519.550781 119.097656 520.777344 119.652344 521.710938 120.472656 C 522.644531 121.289063 523.105469 122.285156 523.105469 123.457031 C 523.105469 124.480469 522.75 125.359375 522.039063 126.101563 C 521.324219 126.847656 520.34375 127.445313 519.101563 127.910156 C 518.300781 128.203125 517.214844 128.445313 515.832031 128.636719 C 516.941406 128.863281 517.746094 129.089844 518.257813 129.316406 C 518.597656 129.46875 519.09375 129.789063 519.746094 130.28125 C 520.398438 130.78125 520.835938 131.160156 521.050781 131.429688 L 525.554688 136.773438 L 515.03125 136.773438 L 510.058594 131.136719 C 509.425781 130.410156 508.867188 129.933594 508.367188 129.71875 C 507.699219 129.433594 506.9375 129.292969 506.089844 129.292969 L 505.265625 129.292969 L 505.265625 136.773438 Z M 505.265625 125.808594 L 509.195313 125.808594 C 509.617188 125.808594 510.4375 125.726563 511.65625 125.558594 C 512.273438 125.480469 512.78125 125.289063 513.171875 124.980469 C 513.558594 124.671875 513.753906 124.3125 513.753906 123.910156 C 513.753906 123.3125 513.445313 122.859375 512.828125 122.542969 C 512.210938 122.21875 511.054688 122.0625 509.355469 122.0625 L 505.265625 122.0625 Z M 526.910156 130.671875 L 535.769531 130.335938 C 535.960938 131.214844 536.351563 131.882813 536.941406 132.347656 C 537.894531 133.09375 539.269531 133.464844 541.050781 133.464844 C 542.378906 133.464844 543.402344 133.273438 544.125 132.894531 C 544.839844 132.511719 545.195313 132.070313 545.195313 131.566406 C 545.195313 131.089844 544.859375 130.660156 544.171875 130.28125 C 543.484375 129.90625 541.898438 129.550781 539.402344 129.214844 C 535.320313 128.652344 532.410156 127.910156 530.667969 126.980469 C 528.914063 126.046875 528.039063 124.863281 528.039063 123.421875 C 528.039063 122.472656 528.488281 121.578125 529.386719 120.734375 C 530.28125 119.894531 531.628906 119.234375 533.433594 118.75 C 535.234375 118.269531 537.703125 118.027344 540.839844 118.027344 C 544.691406 118.027344 547.632813 118.464844 549.652344 119.339844 C 551.671875 120.214844 552.871094 121.609375 553.257813 123.519531 L 544.480469 123.832031 C 544.25 123.003906 543.757813 122.402344 543.007813 122.023438 C 542.265625 121.648438 541.234375 121.460938 539.921875 121.460938 C 538.835938 121.460938 538.019531 121.597656 537.472656 121.882813 C 536.925781 122.160156 536.652344 122.503906 536.652344 122.90625 C 536.652344 123.199219 536.878906 123.460938 537.324219 123.695313 C 537.769531 123.941406 538.808594 124.164063 540.453125 124.375 C 544.523438 124.910156 547.4375 125.457031 549.195313 126.003906 C 550.957031 126.554688 552.242188 127.230469 553.039063 128.046875 C 553.839844 128.859375 554.246094 129.769531 554.246094 130.777344 C 554.246094 131.957031 553.707031 133.046875 552.640625 134.042969 C 551.574219 135.042969 550.078125 135.796875 548.15625 136.3125 C 546.242188 136.828125 543.820313 137.085938 540.902344 137.085938 C 535.78125 137.085938 532.234375 136.484375 530.261719 135.273438 C 528.285156 134.070313 527.167969 132.535156 526.910156 130.671875 "/>
</g>
</svg>
